
<svg width="38px" height="42px" viewBox="0 0 38 42" version="1.1" xmlns="http://www.w3.org/2000/svg" xmlns:xlink="http://www.w3.org/1999/xlink">
    <!-- Generator: Sketch 46.2 (44496) - http://www.bohemiancoding.com/sketch -->
    <desc>Created with Sketch.</desc>
    <defs></defs>
    <g id="Dinarpal" stroke="none" stroke-width="1" fill="none" fill-rule="evenodd">
        <g id="GOLD-History" transform="translate(-30.000000, -272.000000)" fill-rule="nonzero" fill="#64686D">
            <g id="Group-2" transform="translate(30.000000, 272.000000)">
                <g id="wallet_134512" transform="translate(0.000000, 20.461538)">
                    <path d="M1.9167033,4.32336996 C2.09139194,4.24368132 2.1682967,4.03732601 2.08826007,3.86228938 C2.00822344,3.68760073 1.80221612,3.61 1.62717949,3.6907326 C1.38602564,3.80069597 1.16157509,3.94510989 0.960787546,4.11910256 C0.815677656,4.24507326 0.800018315,4.465 0.925641026,4.61010989 C0.994542125,4.68945055 1.09163004,4.73016484 1.18871795,4.73016484 C1.26945055,4.73016484 1.35087912,4.70232601 1.41664835,4.64525641 C1.56732601,4.51441392 1.73540293,4.40619048 1.9167033,4.32336996 Z" id="Shape"></path>
                    <path d="M3.13186813,4.13545788 L3.82783883,4.13545788 C4.02027473,4.13545788 4.17582418,3.97990842 4.17582418,3.78747253 C4.17582418,3.59503663 4.02027473,3.43948718 3.82783883,3.43948718 L3.13186813,3.43948718 C2.93943223,3.43948718 2.78388278,3.59503663 2.78388278,3.78747253 C2.78388278,3.97990842 2.93943223,4.13545788 3.13186813,4.13545788 Z" id="Shape"></path>
                    <path d="M5.21978022,4.13545788 L5.91575092,4.13545788 C6.10818681,4.13545788 6.26373626,3.97990842 6.26373626,3.78747253 C6.26373626,3.59503663 6.10818681,3.43948718 5.91575092,3.43948718 L5.21978022,3.43948718 C5.02734432,3.43948718 4.87179487,3.59503663 4.87179487,3.78747253 C4.87179487,3.97990842 5.02734432,4.13545788 5.21978022,4.13545788 Z" id="Shape"></path>
                    <path d="M3.82783883,8.31128205 L3.13186813,8.31128205 C2.93943223,8.31128205 2.78388278,8.4668315 2.78388278,8.6592674 C2.78388278,8.8517033 2.93943223,9.00725275 3.13186813,9.00725275 L3.82783883,9.00725275 C4.02027473,9.00725275 4.17582418,8.8517033 4.17582418,8.6592674 C4.17582418,8.4668315 4.02027473,8.31128205 3.82783883,8.31128205 Z" id="Shape"></path>
                    <path d="M8.003663,8.31128205 L7.30769231,8.31128205 C7.11525641,8.31128205 6.95970696,8.4668315 6.95970696,8.6592674 C6.95970696,8.8517033 7.11525641,9.00725275 7.30769231,9.00725275 L8.003663,9.00725275 C8.1960989,9.00725275 8.35164835,8.8517033 8.35164835,8.6592674 C8.35164835,8.4668315 8.1960989,8.31128205 8.003663,8.31128205 Z" id="Shape"></path>
                    <path d="M5.91575092,8.31128205 L5.21978022,8.31128205 C5.02734432,8.31128205 4.87179487,8.4668315 4.87179487,8.6592674 C4.87179487,8.8517033 5.02734432,9.00725275 5.21978022,9.00725275 L5.91575092,9.00725275 C6.10818681,9.00725275 6.26373626,8.8517033 6.26373626,8.6592674 C6.26373626,8.4668315 6.10818681,8.31128205 5.91575092,8.31128205 Z" id="Shape"></path>
                    <path d="M1.9167033,8.12336996 C1.73575092,8.04054945 1.56767399,7.93232601 1.41699634,7.80148352 C1.27188645,7.67586081 1.05230769,7.69152015 0.925989011,7.83663004 C0.8003663,7.98173993 0.816025641,8.20166667 0.961135531,8.32763736 C1.16192308,8.50163004 1.38602564,8.64569597 1.62717949,8.75600733 C1.67415751,8.77758242 1.72322344,8.78767399 1.77159341,8.78767399 C1.90382784,8.78767399 2.02979853,8.71216117 2.08826007,8.58445055 C2.16794872,8.4097619 2.09139194,8.20305861 1.9167033,8.12336996 Z" id="Shape"></path>
                    <path d="M10.0915751,8.31128205 L9.3956044,8.31128205 C9.2031685,8.31128205 9.04761905,8.4668315 9.04761905,8.6592674 C9.04761905,8.8517033 9.2031685,9.00725275 9.3956044,9.00725275 L10.0915751,9.00725275 C10.284011,9.00725275 10.4395604,8.8517033 10.4395604,8.6592674 C10.4395604,8.4668315 10.284011,8.31128205 10.0915751,8.31128205 Z" id="Shape"></path>
                    <path d="M16.3553114,8.31128205 L15.6593407,8.31128205 C15.4669048,8.31128205 15.3113553,8.4668315 15.3113553,8.6592674 C15.3113553,8.8517033 15.4669048,9.00725275 15.6593407,9.00725275 L16.3553114,9.00725275 C16.5477473,9.00725275 16.7032967,8.8517033 16.7032967,8.6592674 C16.7032967,8.4668315 16.5477473,8.31128205 16.3553114,8.31128205 Z" id="Shape"></path>
                    <path d="M18.4432234,8.31128205 L17.7472527,8.31128205 C17.5548168,8.31128205 17.3992674,8.4668315 17.3992674,8.6592674 C17.3992674,8.8517033 17.5548168,9.00725275 17.7472527,9.00725275 L18.4432234,9.00725275 C18.6356593,9.00725275 18.7912088,8.8517033 18.7912088,8.6592674 C18.7912088,8.4668315 18.6356593,8.31128205 18.4432234,8.31128205 Z" id="Shape"></path>
                    <path d="M12.1794872,8.31128205 L11.4835165,8.31128205 C11.2910806,8.31128205 11.1355311,8.4668315 11.1355311,8.6592674 C11.1355311,8.8517033 11.2910806,9.00725275 11.4835165,9.00725275 L12.1794872,9.00725275 C12.3719231,9.00725275 12.5274725,8.8517033 12.5274725,8.6592674 C12.5274725,8.4668315 12.3719231,8.31128205 12.1794872,8.31128205 Z" id="Shape"></path>
                    <path d="M14.2673993,8.31128205 L13.5714286,8.31128205 C13.3789927,8.31128205 13.2234432,8.4668315 13.2234432,8.6592674 C13.2234432,8.8517033 13.3789927,9.00725275 13.5714286,9.00725275 L14.2673993,9.00725275 C14.4598352,9.00725275 14.6153846,8.8517033 14.6153846,8.6592674 C14.6153846,8.4668315 14.4598352,8.31128205 14.2673993,8.31128205 Z" id="Shape"></path>
                    <path d="M1.9167033,18.5629304 C1.73575092,18.4801099 1.56767399,18.3718864 1.41699634,18.241044 C1.27188645,18.1154212 1.05230769,18.1310806 0.925989011,18.2761905 C0.8003663,18.4213004 0.816025641,18.6412271 0.961135531,18.7671978 C1.16192308,18.9411905 1.38602564,19.0852564 1.62717949,19.1955678 C1.67415751,19.2171429 1.72322344,19.2272344 1.77159341,19.2272344 C1.90382784,19.2272344 2.02979853,19.1517216 2.08826007,19.024011 C2.16794872,18.8493223 2.09139194,18.642619 1.9167033,18.5629304 Z" id="Shape"></path>
                    <path d="M5.91575092,18.7508425 L5.21978022,18.7508425 C5.02734432,18.7508425 4.87179487,18.9063919 4.87179487,19.0988278 C4.87179487,19.2912637 5.02734432,19.4468132 5.21978022,19.4468132 L5.91575092,19.4468132 C6.10818681,19.4468132 6.26373626,19.2912637 6.26373626,19.0988278 C6.26373626,18.9063919 6.10818681,18.7508425 5.91575092,18.7508425 Z" id="Shape"></path>
                    <path d="M3.82783883,18.7508425 L3.13186813,18.7508425 C2.93943223,18.7508425 2.78388278,18.9063919 2.78388278,19.0988278 C2.78388278,19.2912637 2.93943223,19.4468132 3.13186813,19.4468132 L3.82783883,19.4468132 C4.02027473,19.4468132 4.17582418,19.2912637 4.17582418,19.0988278 C4.17582418,18.9063919 4.02027473,18.7508425 3.82783883,18.7508425 Z" id="Shape"></path>
                    <path d="M12.1794872,18.7508425 L11.4835165,18.7508425 C11.2910806,18.7508425 11.1355311,18.9063919 11.1355311,19.0988278 C11.1355311,19.2912637 11.2910806,19.4468132 11.4835165,19.4468132 L12.1794872,19.4468132 C12.3719231,19.4468132 12.5274725,19.2912637 12.5274725,19.0988278 C12.5274725,18.9063919 12.3719231,18.7508425 12.1794872,18.7508425 Z" id="Shape"></path>
                    <path d="M13.2234432,19.0988278 C13.2234432,19.2912637 13.3789927,19.4468132 13.5714286,19.4468132 L14.2673993,19.4468132 C14.4598352,19.4468132 14.6153846,19.2912637 14.6153846,19.0988278 C14.6153846,18.9063919 14.4598352,18.7508425 14.2673993,18.7508425 L13.5714286,18.7508425 C13.3789927,18.7508425 13.2234432,18.9063919 13.2234432,19.0988278 Z" id="Shape"></path>
                    <path d="M15.6593407,19.4468132 L16.3553114,19.4468132 C16.5477473,19.4468132 16.7032967,19.2912637 16.7032967,19.0988278 C16.7032967,18.9063919 16.5477473,18.7508425 16.3553114,18.7508425 L15.6593407,18.7508425 C15.4669048,18.7508425 15.3113553,18.9063919 15.3113553,19.0988278 C15.3113553,19.2912637 15.4669048,19.4468132 15.6593407,19.4468132 Z" id="Shape"></path>
                    <path d="M10.0915751,18.7508425 L9.3956044,18.7508425 C9.2031685,18.7508425 9.04761905,18.9063919 9.04761905,19.0988278 C9.04761905,19.2912637 9.2031685,19.4468132 9.3956044,19.4468132 L10.0915751,19.4468132 C10.284011,19.4468132 10.4395604,19.2912637 10.4395604,19.0988278 C10.4395604,18.9063919 10.284011,18.7508425 10.0915751,18.7508425 Z" id="Shape"></path>
                    <path d="M17.7472527,19.4468132 L18.4432234,19.4468132 C18.6356593,19.4468132 18.7912088,19.2912637 18.7912088,19.0988278 C18.7912088,18.9063919 18.6356593,18.7508425 18.4432234,18.7508425 L17.7472527,18.7508425 C17.5548168,18.7508425 17.3992674,18.9063919 17.3992674,19.0988278 C17.3992674,19.2912637 17.5548168,19.4468132 17.7472527,19.4468132 Z" id="Shape"></path>
                    <path d="M8.003663,18.7508425 L7.30769231,18.7508425 C7.11525641,18.7508425 6.95970696,18.9063919 6.95970696,19.0988278 C6.95970696,19.2912637 7.11525641,19.4468132 7.30769231,19.4468132 L8.003663,19.4468132 C8.1960989,19.4468132 8.35164835,19.2912637 8.35164835,19.0988278 C8.35164835,18.9063919 8.1960989,18.7508425 8.003663,18.7508425 Z" id="Shape"></path>
                    <path d="M15.3113553,13.5310623 C15.3113553,14.2987179 15.935641,14.9230037 16.7032967,14.9230037 C17.4709524,14.9230037 18.0952381,14.2987179 18.0952381,13.5310623 C18.0952381,12.7634066 17.4709524,12.1391209 16.7032967,12.1391209 C15.935641,12.1391209 15.3113553,12.7634066 15.3113553,13.5310623 Z M16.7032967,12.8350916 C17.0871245,12.8350916 17.3992674,13.1472344 17.3992674,13.5310623 C17.3992674,13.9148901 17.0871245,14.227033 16.7032967,14.227033 C16.3194689,14.227033 16.007326,13.9148901 16.007326,13.5310623 C16.007326,13.1472344 16.3194689,12.8350916 16.7032967,12.8350916 Z" id="Shape"></path>
                    <path d="M14.9431868,2.04754579 L13.0515385,0.155897436 C12.897381,0.00173992674 12.6457875,0.00173992674 12.49163,0.155897436 L11.779652,0.867875458 L11.067674,0.155897436 C10.9135165,0.00173992674 10.6619231,0.00173992674 10.5077656,0.155897436 L8.61611722,2.04754579 L2.78388278,2.04754579 C1.24891941,2.04754579 0,3.2964652 0,4.83142857 L0,18.3499634 C0,19.7220696 1.11668498,20.8387546 2.48879121,20.8387546 L20.8791209,20.8387546 L20.8791209,15.9669597 L20.8791209,11.0951648 L20.8791209,7.61531136 L20.8791209,6.91934066 L20.8791209,2.04754579 L14.9431868,2.04754579 Z M12.7717582,0.86021978 L13.9590842,2.04754579 L18.8308791,6.91934066 L16.9548901,6.91934066 L13.0341392,2.99824176 C12.8869414,2.85521978 12.6562271,2.85556777 12.5055495,3.0020696 L8.58862637,6.91934066 L6.71263736,6.91934066 L12.2720513,1.36027473 L12.2720513,1.36027473 L12.7717582,0.86021978 Z M15.9711355,6.91934066 L9.57272894,6.91934066 L12.7717582,3.72031136 L15.9711355,6.91934066 Z M10.7875458,0.86021978 L11.2876007,1.36027473 L5.7285348,6.91934066 L4.72842491,6.91934066 L9.60021978,2.04754579 L10.7875458,0.86021978 Z M2.78388278,2.74351648 L7.92014652,2.74351648 L7.20294872,3.46071429 C7.09750916,3.49481685 7.01677656,3.57520147 6.98267399,3.68098901 L3.74432234,6.91934066 L2.78388278,6.91934066 C1.63239927,6.91934066 0.695970696,5.98291209 0.695970696,4.83142857 C0.695970696,3.67994505 1.63239927,2.74351648 2.78388278,2.74351648 Z M20.1831502,15.270989 L16.3553114,15.270989 C15.3959158,15.270989 14.6153846,14.4904579 14.6153846,13.5310623 C14.6153846,12.5716667 15.3959158,11.7911355 16.3553114,11.7911355 L20.1831502,11.7911355 L20.1831502,15.270989 Z M20.1831502,8.31128205 L19.8351648,8.31128205 C19.6427289,8.31128205 19.4871795,8.4668315 19.4871795,8.6592674 C19.4871795,8.8517033 19.6427289,9.00725275 19.8351648,9.00725275 L20.1831502,9.00725275 L20.1831502,11.0951648 L16.3553114,11.0951648 C15.0124359,11.0951648 13.9194139,12.1881868 13.9194139,13.5310623 C13.9194139,14.8739377 15.0124359,15.9669597 16.3553114,15.9669597 L20.1831502,15.9669597 L20.1831502,18.7508425 L19.8351648,18.7508425 C19.6427289,18.7508425 19.4871795,18.9063919 19.4871795,19.0988278 C19.4871795,19.2912637 19.6427289,19.4468132 19.8351648,19.4468132 L20.1831502,19.4468132 L20.1831502,20.1427839 L2.48879121,20.1427839 C1.50051282,20.1427839 0.695970696,19.3385897 0.695970696,18.3499634 L0.695970696,17.5830037 C0.777051282,17.4960073 0.816025641,17.3731685 0.779835165,17.2510256 C0.724157509,17.0610256 0.695970696,16.863022 0.695970696,16.6629304 L0.695970696,7.14344322 C0.777051282,7.05644689 0.816025641,6.93360806 0.779835165,6.8114652 C0.773223443,6.78884615 0.770787546,6.76553114 0.764871795,6.74291209 C0.796190476,6.7759707 0.827857143,6.80833333 0.860567766,6.83965201 C0.890494505,6.8685348 0.921465201,6.89602564 0.952783883,6.92351648 C0.991758242,6.95761905 1.03142857,6.99067766 1.07214286,7.02269231 C1.10485348,7.04844322 1.13826007,7.07315018 1.17201465,7.09750916 C1.21412088,7.12778388 1.25761905,7.15631868 1.3014652,7.18415751 C1.33661172,7.20642857 1.37175824,7.22800366 1.40794872,7.24888278 C1.45388278,7.27498168 1.50086081,7.29934066 1.54818681,7.32300366 C1.58472527,7.34144689 1.62126374,7.35989011 1.65884615,7.37659341 C1.70860806,7.39851648 1.75941392,7.41800366 1.81021978,7.43714286 C1.8478022,7.45141026 1.88503663,7.46602564 1.92331502,7.47855311 C1.97794872,7.49630037 2.03362637,7.51056777 2.08930403,7.52518315 C2.12619048,7.53457875 2.16238095,7.54571429 2.19996337,7.55371795 C2.26294872,7.56728938 2.32697802,7.576337 2.39135531,7.58538462 C2.42336996,7.58990842 2.45468864,7.59652015 2.48705128,7.6 C2.58448718,7.61043956 2.68331502,7.61635531 2.78318681,7.61635531 L4.1110989,7.61635531 L5.09520147,7.61635531 L6.09531136,7.61635531 L7.07941392,7.61635531 L8.8040293,7.61635531 L16.7398352,7.61635531 L18.4634066,7.61635531 L19.4475092,7.61635531 L20.1831502,7.61635531 L20.1831502,8.31128205 Z M19.8149817,6.91934066 L17.0310989,4.13545788 L17.0512821,4.13545788 C17.2437179,4.13545788 17.3992674,3.97990842 17.3992674,3.78747253 C17.3992674,3.59503663 17.2437179,3.43948718 17.0512821,3.43948718 L16.3553114,3.43948718 C16.3493956,3.43948718 16.3445238,3.44261905 16.3386081,3.44296703 L15.6391575,2.74351648 L20.1831502,2.74351648 L20.1831502,6.91934066 L19.8149817,6.91934066 Z" id="Shape"></path>
                    <path d="M19.1391941,3.43948718 L18.4432234,3.43948718 C18.2507875,3.43948718 18.0952381,3.59503663 18.0952381,3.78747253 C18.0952381,3.97990842 18.2507875,4.13545788 18.4432234,4.13545788 L19.1391941,4.13545788 C19.33163,4.13545788 19.4871795,3.97990842 19.4871795,3.78747253 C19.4871795,3.59503663 19.33163,3.43948718 19.1391941,3.43948718 Z" id="Shape"></path>
                </g>
                <g id="coin_134538" transform="translate(22.549451, 0.000000)">
                    <path d="M8.52444108,0 C8.25245813,0 7.98500379,0.0202455476 7.72127889,0.0559416446 C7.44636567,0.0191799924 7.18503827,0 6.92610837,0 C4.96495415,0 3.19639901,0.951274346 1.95529367,2.46782569 C1.9427734,2.47901402 1.93371618,2.49233346 1.92359341,2.5056529 C1.52800606,2.99554187 1.18809397,3.54403638 0.91318075,4.13755059 C0.906254642,4.15060364 0.9001277,4.1633903 0.895066313,4.1775089 C0.705663888,4.59227624 0.547695339,5.02808829 0.426222054,5.48201478 C0.414234559,5.5075881 0.408906783,5.53555892 0.405443729,5.5645953 C0.229360743,6.25081281 0.133194392,6.9753903 0.133194392,7.72527473 C0.133194392,8.89845093 0.365485411,10.0106241 0.778654415,11.0074509 C0.782383858,11.0181065 0.785846912,11.0282293 0.790908299,11.038352 C1.03864987,11.6292023 1.35032474,12.178496 1.71607654,12.6753111 C1.72540015,12.6880978 1.73312543,12.7016836 1.74458014,12.7126055 C2.11486055,13.2094206 2.53921789,13.6518924 3.00726298,14.0290989 C3.02058242,14.0437503 3.03656574,14.0546722 3.05308185,14.0661269 C4.15246836,14.937751 5.48734255,15.4505495 6.92610837,15.4505495 C7.18503827,15.4505495 7.44636567,15.4313695 7.72127889,15.3946078 C7.98500379,15.4303039 8.25245813,15.4505495 8.52444108,15.4505495 C12.2701338,15.4505495 15.3173551,11.9850978 15.3173551,7.72527473 C15.3173551,3.46545169 12.2701338,0 8.52444108,0 Z M5.71137552,0.69634028 C5.62320083,0.742159151 5.5360917,0.790109132 5.45004812,0.839923835 C5.40183175,0.867894657 5.353349,0.894799924 5.30593179,0.92410269 C5.2321421,0.969388784 5.15995074,1.01733876 5.08802577,1.06555513 L4.57522736,1.06555513 C4.96468776,0.883345207 5.37119704,0.739761652 5.7950216,0.65052141 C5.766518,0.664640015 5.73961273,0.681688897 5.71137552,0.69634028 Z M3.02617658,12.253884 L2.0709064,12.253884 C1.8359515,11.9219636 1.62736908,11.565269 1.44622471,11.1883289 L2.45530542,11.1883289 C2.49712846,11.2826305 2.54001705,11.376133 2.58503676,11.4683035 C2.60448314,11.5079955 2.62472869,11.5471546 2.64497423,11.5865801 C2.69958393,11.6936684 2.75605836,11.798892 2.81493028,11.9025172 C2.83677416,11.9411436 2.85781887,11.9803028 2.88046192,12.0186628 C2.92734634,12.098313 2.97662827,12.1760985 3.02617658,12.253884 Z M1.32341948,4.52860932 L2.34288935,4.52860932 C2.29627131,4.64502122 2.25205078,4.76276506 2.21022774,4.88210724 C2.19877302,4.91513945 2.18705191,4.94790527 2.17586358,4.98093748 C2.1375036,5.09548465 2.1018075,5.21109739 2.06797613,5.32777567 L1.02746154,5.32777567 C1.11217317,5.05312884 1.2112698,4.78674005 1.32341948,4.52860932 Z M0.665971959,7.72527473 C0.665971959,7.54572869 0.675561955,7.36884653 0.686750284,7.19249716 L1.74884236,7.19249716 C1.74857598,7.19675938 1.74857598,7.2010216 1.74830959,7.20528382 C1.7384532,7.37737097 1.73152709,7.55025729 1.73152709,7.72527473 C1.73152709,7.81451497 1.73472376,7.90295604 1.73738765,7.99166351 L0.676361122,7.99166351 C0.673430845,7.90268966 0.665971959,7.81504775 0.665971959,7.72527473 Z M1.76775597,8.52444108 C1.77787874,8.63659075 1.79093179,8.74794127 1.80531679,8.858759 C1.80638234,8.86675066 1.80691512,8.87500872 1.80798067,8.88326677 C1.82769344,9.03137893 1.85166844,9.17815915 1.8785737,9.32360743 L0.82793634,9.32360743 C0.775990527,9.06201364 0.734966654,8.79589125 0.708594164,8.52444108 L1.76775597,8.52444108 Z M1.93291701,5.86055324 C1.92599091,5.89198712 1.92013035,5.92395377 1.91373702,5.95538765 C1.90654452,5.99055097 1.89908564,6.0254479 1.89215953,6.06061122 C1.8596601,6.22763698 1.83089011,6.39626108 1.80824706,6.56728268 C1.80718151,6.57527435 1.80664873,6.5835324 1.80558318,6.59179045 C1.80238651,6.6144335 1.80052179,6.63707654 1.79759151,6.65971959 L0.74029443,6.65971959 C0.775457749,6.38853581 0.819944676,6.12108147 0.880947707,5.86055324 L1.93291701,5.86055324 Z M1.99658393,9.85638499 C2.00484199,9.88888443 2.01256726,9.92191664 2.0210917,9.95414968 C2.02428837,9.96587078 2.02695225,9.97812467 2.03014892,9.98984577 C2.07410307,10.1520765 2.12338499,10.3116434 2.17612997,10.4693456 C2.1873183,10.5026442 2.19903941,10.5351436 2.21049413,10.5681758 C2.22035051,10.5974786 2.2302069,10.6267814 2.24059606,10.6555513 L1.21420008,10.6555513 C1.11323873,10.3968878 1.02639598,10.1299663 0.952339901,9.85638499 L1.99658393,9.85638499 Z M2.88019553,3.43215309 C2.85781887,3.47024668 2.83650777,3.50967222 2.81466389,3.5482986 C2.75579197,3.65192383 2.69905116,3.75741379 2.64470784,3.8642357 C2.62472869,3.90366124 2.60421675,3.942554 2.58477037,3.98251232 C2.58263926,3.98677454 2.58024176,3.99130315 2.57811065,3.99583175 L1.5794191,3.99583175 C1.78107541,3.61569496 2.01336643,3.26006593 2.27096438,2.93027662 L3.20412429,2.93027662 C3.17162486,2.97689466 3.13885904,3.02324631 3.10715877,3.07066351 C3.02857408,3.18867374 2.95291967,3.30908147 2.88019553,3.43215309 Z M3.65805078,1.5983327 L4.3938166,1.5983327 C4.32775218,1.65613907 4.26168776,1.71421182 4.19748806,1.77468208 C4.14394392,1.82529595 4.09199811,1.87777454 4.0397859,1.93025313 C3.98704092,1.98326449 3.93482872,2.03707503 3.88368208,2.09168473 C3.83440015,2.14416332 3.78511823,2.19637552 3.73716825,2.25045244 C3.69454604,2.29840243 3.65378856,2.34821713 3.61249829,2.39749905 L2.73288253,2.39749905 C3.01898408,2.09994278 3.32772869,1.83168928 3.65805078,1.5983327 Z M2.48380902,12.7866616 L3.39805532,12.7866616 C3.42815726,12.8260872 3.4579928,12.8655127 3.4888939,12.9041391 C3.56934331,13.0053668 3.65219022,13.1039307 3.73716825,13.200097 C3.78485184,13.2541739 3.83440015,13.3063861 3.88368208,13.3588647 C3.93509511,13.4137408 3.98730731,13.4675513 4.04031868,13.5205627 C4.06162978,13.5418738 4.08187533,13.5647833 4.10345282,13.585828 L3.30215536,13.585828 C3.00939409,13.3463444 2.73581281,13.0788901 2.48380902,12.7866616 Z M5.79475521,14.800028 C5.18392573,14.6713623 4.60666124,14.4353418 4.07121978,14.1186055 L4.71561425,14.1186055 C4.74971201,14.144978 4.78487533,14.1697522 4.81923948,14.1953255 C4.87438196,14.2363494 4.92952444,14.2776396 4.98573247,14.3167988 C5.09042327,14.3897893 5.19724517,14.4598496 5.3056654,14.5264468 C5.35308261,14.5554831 5.40156537,14.5826548 5.44978174,14.6106256 C5.53582531,14.6604403 5.62293444,14.7083903 5.71110913,14.7542092 C5.73961273,14.7688606 5.766518,14.7859094 5.79475521,14.800028 Z M8.52444108,14.9177719 C8.31266199,14.9177719 8.1035468,14.9052516 7.89736188,14.881543 L7.79426942,14.867158 C7.77988443,14.8652933 7.76576582,14.8628958 7.75164721,14.8610311 C7.6594767,14.847978 7.56810534,14.8327939 7.47753316,14.8152122 C7.46980788,14.8136139 7.462349,14.8120155 7.45489011,14.8104172 C7.36671542,14.7931019 7.2793399,14.7736556 7.19276355,14.7520781 C7.1797105,14.7488814 7.16665745,14.745152 7.1536044,14.7416889 C7.07288859,14.7209106 6.99243918,14.6990667 6.91305532,14.6748253 C6.88881394,14.6673664 6.86457257,14.658842 6.84033119,14.6511167 C6.77240205,14.6295392 6.7047393,14.607429 6.63787571,14.5831876 C6.5835324,14.5634748 6.52998825,14.5416309 6.47644411,14.5203198 C6.43994884,14.5059348 6.4029208,14.492349 6.36695832,14.4771648 C4.93458583,13.8711304 3.74675824,12.6795733 3.02404547,11.1563623 C3.01738575,11.14251 3.01125881,11.1278587 3.00486548,11.1140064 C2.96623911,11.0311595 2.92867829,10.9475135 2.8927158,10.8628018 C2.87833081,10.8289704 2.86501137,10.7946063 2.85115915,10.7605085 C2.82425388,10.6944441 2.79761501,10.6281133 2.77257446,10.5609833 C2.75632474,10.5178283 2.74114058,10.4738742 2.72569003,10.4301864 C2.70464532,10.3710481 2.683867,10.3116434 2.66442061,10.2517059 C2.64843729,10.2026904 2.63325313,10.1531421 2.61806897,10.1038602 C2.60075369,10.0476521 2.5839712,9.99117772 2.56798787,9.93443691 C2.5530701,9.8824911 2.5389515,9.82974612 2.52536567,9.77726753 C2.51098067,9.72159227 2.49712846,9.66538424 2.48380902,9.6091762 C2.47102236,9.55536567 2.45876847,9.50155513 2.44704737,9.44721182 C2.43479348,9.39047101 2.42360515,9.33346381 2.41268321,9.27619022 C2.40229405,9.22158052 2.39190489,9.16697082 2.38231489,9.11182834 C2.37219212,9.05295642 2.36340129,8.99381811 2.35461046,8.93441341 C2.34661879,8.88060288 2.33836074,8.82705873 2.33143463,8.77271542 C2.32317658,8.70878211 2.31678325,8.64404964 2.31012353,8.57958355 C2.30479576,8.52923607 2.2989352,8.47915498 2.29467298,8.42854111 C2.28827965,8.35448503 2.28401743,8.27989617 2.27975521,8.20504092 C2.27735771,8.1629515 2.27389466,8.12139485 2.27202994,8.07930542 C2.26723494,7.96209435 2.26430466,7.84408412 2.26430466,7.72527473 C2.26430466,7.60646533 2.26723494,7.4884551 2.27202994,7.37097764 C2.27389466,7.32888822 2.27735771,7.28706518 2.27975521,7.24524214 C2.28401743,7.17065328 2.28827965,7.09579803 2.29467298,7.02174195 C2.2989352,6.97112808 2.30479576,6.92104699 2.31012353,6.87069951 C2.31678325,6.80623342 2.32344297,6.74176734 2.33143463,6.67756764 C2.33836074,6.62349072 2.34661879,6.56968018 2.35461046,6.51586965 C2.36340129,6.45646495 2.37219212,6.39732664 2.38231489,6.33845472 C2.3916385,6.28331224 2.40202766,6.22870254 2.41268321,6.17409284 C2.42360515,6.11681925 2.43505987,6.05981205 2.44704737,6.00307124 C2.45876847,5.94872793 2.47102236,5.89491739 2.48380902,5.84110686 C2.49712846,5.78489883 2.51098067,5.72869079 2.52536567,5.67301554 C2.5389515,5.62027056 2.5530701,5.56779197 2.56772149,5.51557977 C2.58370481,5.45883895 2.60048731,5.40236453 2.61780258,5.3461565 C2.63298674,5.29660818 2.6481709,5.24732626 2.66415423,5.19831072 C2.683867,5.13837325 2.70464532,5.07896855 2.72569003,5.01956385 C2.74114058,4.97587609 2.75632474,4.93218833 2.77257446,4.88903335 C2.79788139,4.82190337 2.82425388,4.75557257 2.85115915,4.68950815 C2.86501137,4.65541038 2.87833081,4.62104623 2.8927158,4.58721485 C2.92867829,4.50250322 2.96623911,4.41885714 3.00486548,4.33601023 C3.0115252,4.32189163 3.01738575,4.30750663 3.02404547,4.29365441 C3.74675824,2.77044335 4.93458583,1.57915271 6.36695832,0.972851838 C6.40318719,0.957667677 6.43994884,0.944081849 6.47644411,0.929696855 C6.52998825,0.908385752 6.5835324,0.886541872 6.63787571,0.866829102 C6.7047393,0.842587723 6.77240205,0.820743842 6.84033119,0.798899962 C6.86457257,0.791174687 6.88854756,0.782650246 6.91305532,0.77519136 C6.99243918,0.750949981 7.07288859,0.728839712 7.1536044,0.708327776 C7.16639106,0.705397499 7.17944411,0.701401667 7.19249716,0.698205002 C7.27907351,0.67662751 7.36644903,0.657447518 7.45462372,0.639865858 C7.462349,0.638267526 7.46980788,0.636669193 7.47726677,0.63507086 C7.56783895,0.6174892 7.65921031,0.60230504 7.75138083,0.589251989 C7.76549943,0.587120879 7.77988443,0.584989769 7.79400303,0.583125047 L7.89709549,0.568740053 C8.1035468,0.54529784 8.31266199,0.532777567 8.52444108,0.532777567 C11.9763069,0.532777567 14.7845775,3.75927851 14.7845775,7.72527473 C14.7845775,11.6912709 11.9763069,14.9177719 8.52444108,14.9177719 Z" id="Shape"></path>
                    <path d="M3.7739299,7.72527473 C3.7739299,7.55771618 3.78058962,7.38935847 3.79364267,7.2247302 C3.80509739,7.07821637 3.69587798,6.94981698 3.54909776,6.93809587 C3.40178477,6.92744032 3.27418454,7.03612694 3.26246343,7.18264077 C3.24834483,7.36085487 3.24115233,7.54359757 3.24115233,7.72527473 L3.24115233,7.73086889 C3.24115233,7.8779155 3.36049451,7.9943274 3.50754111,7.9943274 C3.65458772,7.9943274 3.7739299,7.87232133 3.7739299,7.72527473 Z" id="Shape"></path>
                    <path d="M13.0887465,6.20472755 C13.1191148,6.32566806 13.2275351,6.40611747 13.3468772,6.40611747 C13.3684547,6.40611747 13.3902986,6.40345358 13.4121425,6.39812581 C13.5546605,6.36216332 13.6412368,6.21751421 13.6055407,6.07472982 C13.5607874,5.89678211 13.5083088,5.71936718 13.4491705,5.54728003 C13.4014869,5.40822509 13.2501781,5.33336984 13.1108568,5.38158621 C12.9718018,5.4292698 12.8974793,5.58084502 12.9451629,5.71989996 C12.9992399,5.87786851 13.0474562,6.04116484 13.0887465,6.20472755 Z" id="Shape"></path>
                    <path d="M11.9933558,11.4597791 C11.8868003,11.5908424 11.7741178,11.7163115 11.6585051,11.8332562 C11.5548799,11.9376806 11.555679,12.1063047 11.6601034,12.2099299 C11.7120493,12.2613429 11.7799784,12.2871826 11.8476412,12.2871826 C11.9161031,12.2871826 11.9848314,12.2608102 12.0367772,12.2083316 C12.1649102,12.079133 12.2893138,11.9403444 12.4067912,11.7959617 C12.4997609,11.6816809 12.4821792,11.513856 12.3681648,11.4211527 C12.2541504,11.328183 12.0863255,11.3457647 11.9933558,11.4597791 Z" id="Shape"></path>
                    <path d="M3.95747177,9.23543274 C3.92204206,9.09264835 3.77686017,9.00527283 3.63460856,9.04123532 C3.49182418,9.07666502 3.40498143,9.22131413 3.44041114,9.36409852 C3.48463168,9.54177984 3.53684388,9.71946116 3.5957158,9.89208109 C3.63354301,10.0028988 3.73690186,10.0726927 3.84771959,10.0726927 C3.87622319,10.0726927 3.90525957,10.0678977 3.93376317,10.0583077 C4.07281811,10.0108905 4.14740697,9.85958166 4.09998977,9.72026033 C4.04617923,9.56202539 3.99822925,9.39872906 3.95747177,9.23543274 Z" id="Shape"></path>
                    <path d="M11.1505017,2.51710762 C10.9949307,2.41561349 10.8324335,2.32211103 10.6678052,2.23926412 C10.5362092,2.17266692 10.3763759,2.22621106 10.3100451,2.35700796 C10.2437143,2.48833763 10.2964593,2.64870368 10.4277889,2.71476809 C10.5751019,2.78909056 10.7202838,2.87273664 10.8596052,2.96357522 C10.9043585,2.99287798 10.9549723,3.0067302 11.004787,3.0067302 C11.0918962,3.0067302 11.1771406,2.964108 11.2282872,2.88578969 C11.3084703,2.76271808 11.2738397,2.59755703 11.1505017,2.51710762 Z" id="Shape"></path>
                    <path d="M10.4568253,12.7208636 C10.3087131,12.7967844 10.155806,12.8647135 10.002366,12.9225199 C9.86464305,12.9741993 9.79511557,13.1279056 9.84706139,13.2656286 C9.88728609,13.3724505 9.98851383,13.4382486 10.0964013,13.4382486 C10.1275688,13.4382486 10.159269,13.4326544 10.1904365,13.4209333 C10.3627901,13.3559344 10.5343444,13.2800136 10.7003047,13.1947692 C10.8311016,13.1276393 10.8830474,12.9670068 10.815651,12.8362099 C10.7482546,12.705413 10.5876222,12.6534672 10.4568253,12.7208636 Z" id="Shape"></path>
                    <path d="M12.7147366,4.06962145 C12.6111114,3.9164479 12.4997609,3.76753657 12.3836154,3.6266169 C12.2901129,3.51313528 12.1220216,3.49661917 12.00854,3.59038803 C11.8950584,3.68389049 11.8788086,3.85171542 11.9723111,3.96546343 C12.0778011,4.09359644 12.1790288,4.22918833 12.2733304,4.36824327 C12.3247435,4.44443047 12.4086559,4.48518795 12.4941667,4.48518795 C12.5455798,4.48518795 12.5975256,4.47027018 12.6433444,4.43936908 C12.7653505,4.35678856 12.7973172,4.19136112 12.7147366,4.06962145 Z" id="Shape"></path>
                    <path d="M13.541341,7.4503615 C13.3942944,7.4503615 13.2749523,7.57822812 13.2749523,7.72527473 C13.2749523,7.88857105 13.2685589,8.05346571 13.2560387,8.21489731 C13.2448503,8.36167753 13.3543361,8.48981053 13.5011163,8.50099886 C13.5080424,8.50153164 13.5149685,8.50179803 13.5218947,8.50179803 C13.6596177,8.50179803 13.7765623,8.39577529 13.7872179,8.25592118 C13.8008037,8.08063736 13.8077298,7.90215688 13.8077298,7.72500834 L13.8077298,7.70769307 C13.8077298,7.56091285 13.688654,7.4503615 13.541341,7.4503615 Z" id="Shape"></path>
                    <path d="M13.2930667,9.53192346 C13.153479,9.48503903 13.0027029,9.56016067 12.9555521,9.699482 C12.9017416,9.85904888 12.8407385,10.0175502 12.7741413,10.1707238 C12.7155358,10.3055165 12.7770716,10.4626859 12.9121307,10.5212914 C12.9467613,10.5364756 12.9829901,10.5434017 13.0184199,10.5434017 C13.1212459,10.5434017 13.2190106,10.4834642 13.2626984,10.383302 C13.3354225,10.2162762 13.4020197,10.0431235 13.4606252,9.86917166 C13.5077761,9.72985032 13.4326544,9.57880788 13.2930667,9.53192346 Z" id="Shape"></path>
                    <path d="M9.07027169,1.75683403 C8.8896601,1.73578931 8.70611823,1.72513376 8.52444108,1.72513376 L8.51325275,1.72513376 C8.36620614,1.72513376 8.25245813,1.84447594 8.25245813,1.99152255 C8.25245813,2.13856915 8.37739447,2.25791133 8.52444108,2.25791133 C8.68560629,2.25791133 8.84863623,2.26723494 9.00900227,2.28588215 C9.01939144,2.2872141 9.0297806,2.28774687 9.04016976,2.28774687 C9.17336415,2.28774687 9.2887105,2.18785108 9.30442743,2.0519928 C9.32120993,1.90574536 9.21651914,1.77361652 9.07027169,1.75683403 Z" id="Shape"></path>
                    <path d="M4.76915839,11.073249 C4.68684426,10.9509765 4.52115044,10.9190099 4.39941076,11.001324 C4.2774047,11.0836381 4.24517166,11.2490656 4.32748579,11.3710716 C4.43084464,11.5242452 4.54192876,11.6734229 4.65754149,11.8146089 C4.71028647,11.8788086 4.78674005,11.9121072 4.86372641,11.9121072 C4.92313111,11.9121072 4.98306859,11.8923945 5.0326169,11.851637 C5.14636491,11.7581345 5.16288102,11.590576 5.06964494,11.4765616 C4.96442137,11.348695 4.86319363,11.2128367 4.76915839,11.073249 Z" id="Shape"></path>
                    <path d="M4.14154642,4.91886889 C4.00648731,4.86026336 3.8498507,4.92126639 3.79071239,5.0563255 C3.71745548,5.22388405 3.65059189,5.39677037 3.59171997,5.56992308 C3.54456915,5.70924441 3.61915801,5.86055324 3.75847935,5.90797044 C3.78671656,5.91756044 3.81575294,5.92208905 3.84399015,5.92208905 C3.95507427,5.92208905 4.05869951,5.8520288 4.09626033,5.74121106 C4.15007086,5.58217696 4.21160667,5.42367563 4.27873664,5.26970292 C4.33814134,5.13491019 4.27660553,4.97774081 4.14154642,4.91886889 Z" id="Shape"></path>
                    <path d="M8.52444108,13.1926381 C8.35874725,13.1926381 8.19225426,13.1827817 8.02949072,13.1633354 C7.88430883,13.1478848 7.75084805,13.2501781 7.73326639,13.3964255 C7.71595112,13.5424066 7.82010913,13.6750682 7.96635657,13.6926499 C8.15016484,13.7144937 8.33823532,13.7256821 8.52470746,13.7256821 L8.5476169,13.7256821 C8.69466351,13.7256821 8.80255097,13.6063399 8.80255097,13.4592933 C8.80255097,13.3122467 8.67148768,13.1926381 8.52444108,13.1926381 Z" id="Shape"></path>
                    <path d="M5.02036302,3.23369344 C4.89223001,3.362892 4.76729367,3.50114778 4.64981622,3.64526412 C4.55658014,3.75927851 4.57362903,3.92710345 4.68764343,4.02007313 C4.73719174,4.06056423 4.79686283,4.080277 4.85600114,4.080277 C4.93325388,4.080277 5.00970746,4.0469784 5.06245244,3.98251232 C5.16927435,3.85171542 5.28222319,3.72624631 5.3983687,3.60956802 C5.50199394,3.50514362 5.50146116,3.33651951 5.39730315,3.23262789 C5.29287874,3.12900265 5.12452103,3.12980182 5.02036302,3.23369344 Z" id="Shape"></path>
                    <path d="M6.86990034,2.02508753 C6.69728041,2.08982001 6.52545964,2.16547442 6.35949943,2.25018606 C6.22843615,2.31678325 6.17622395,2.47741569 6.24308753,2.60847897 C6.28997196,2.70091588 6.38347442,2.75392725 6.48070633,2.75392725 C6.52146381,2.75392725 6.56275407,2.74460364 6.60138045,2.72489087 C6.74949261,2.64950284 6.90266616,2.58184009 7.05637249,2.52430011 C7.19409549,2.47262069 7.26415574,2.31918075 7.21247632,2.18145775 C7.16132967,2.04320197 7.00735695,1.97340811 6.86990034,2.02508753 Z" id="Shape"></path>
                    <path d="M6.61150322,12.7309864 C6.46498939,12.6566639 6.3198075,12.572485 6.18021978,12.4811137 C6.05688177,12.4006643 5.89225351,12.4352948 5.81127131,12.5581 C5.7308219,12.6811717 5.76518606,12.8463327 5.88825767,12.9267821 C6.04409511,13.028809 6.20632588,13.1228443 6.37015498,13.2059576 C6.40878136,13.2256703 6.45007162,13.2347275 6.49056271,13.2347275 C6.58779462,13.2347275 6.68129708,13.1814498 6.7284479,13.0890129 C6.79504509,12.9579496 6.7425665,12.7975836 6.61150322,12.7309864 Z" id="Shape"></path>
                </g>
                <g id="share_128005" transform="translate(6.263736, 5.010989)">
                    <path d="M12.8208633,3.27530117 L12.8212679,3.27489663 C12.8216724,3.27428984 12.8220769,3.27368304 12.8224815,3.27287397 C12.8572713,3.23343201 12.8827569,3.18589938 12.9031858,3.13573729 C12.9096583,3.12036504 12.9139059,3.10580185 12.918558,3.09022734 C12.9302895,3.05159444 12.9375711,3.01154567 12.9399983,2.96967651 C12.9412119,2.95430426 12.9436391,2.93974107 12.9432345,2.92396429 C12.9432345,2.91587363 12.9452572,2.90859203 12.9448527,2.90070364 C12.9420209,2.85236195 12.9323122,2.80563839 12.9173444,2.76174657 C12.9161308,2.75709444 12.9128946,2.75345364 12.9112764,2.74880151 C12.893477,2.70045982 12.8679914,2.65757933 12.8378537,2.61833963 C12.8336061,2.61287843 12.8321902,2.60559684 12.8277404,2.60013565 L10.7421707,0.143406937 C10.5825824,-0.0447008929 10.3206473,-0.0483416896 10.1568115,0.135923077 C9.99338015,0.319985577 9.99034615,0.62176717 10.1503389,0.810279533 L11.2745361,2.13492273 C9.63192995,1.917284 8.01723661,2.26295742 7.94098214,2.2799478 C2.95592239,3.18347218 -0.571807349,7.78705735 0.0768612637,12.5421401 C0.109021635,12.7775783 0.284791209,12.9450549 0.485237294,12.9450549 C0.506677541,12.9450549 0.528117788,12.9432345 0.549962569,12.9395937 C0.775691964,12.8985337 0.929819025,12.6546003 0.894624657,12.3942833 C0.316749313,8.15882315 3.53541587,4.04431834 8.08256868,3.21988015 C8.10340213,3.21502576 9.77169609,2.85701408 11.3424976,3.10377919 L9.60765797,4.13392239 C9.40438015,4.25487775 9.32488942,4.54250069 9.4294612,4.77652301 C9.5338307,5.01094986 9.78302301,5.10176751 9.98690762,4.98222802 L12.7215505,3.35843269 C12.7585652,3.33598111 12.791737,3.30786607 12.8208633,3.27530117 Z" id="Shape"></path>
                </g>
            </g>
        </g>
    </g>
</svg>