<?xml version="1.0" encoding="UTF-8" standalone="no"?>
<svg width="494px" height="708px" viewBox="0 0 494 708" version="1.1" xmlns="http://www.w3.org/2000/svg" xmlns:xlink="http://www.w3.org/1999/xlink">
    <!-- Generator: Sketch 43.2 (39069) - http://www.bohemiancoding.com/sketch -->
    <title>noun_36051_cc</title>
    <desc>Created with Sketch.</desc>
    <defs></defs>
    <g id="Page-1" stroke="none" stroke-width="1" fill="none" fill-rule="evenodd">
        <g id="noun_36051_cc" transform="translate(-3.000000, -1.000000)" fill-rule="nonzero" fill="#000000">
            <path d="M460.204545,271.674242 C457.719697,241.977273 454.848485,219.287879 443.939394,188.893939 C438.515152,173.189394 431.659091,159.242424 423.871212,146.598485 C423.94697,147.325758 424.05303,148.022727 424.113636,148.75 C424.272727,149.295455 424.363636,150.022727 424.393939,150.689394 C424.378788,150.022727 424.295455,149.363636 424.113636,148.75 C414.727273,47.1818182 330.30303,1.70454545 250.431818,1.70454545 C171.901515,1.70454545 84.8636364,46.7424242 76.1893939,145.393939 C67.7272727,158.962121 60.8409091,173.742424 55.8409091,189.628788 C45.9393939,219.69697 42.280303,242.954545 39.8106061,271.659091 C17.5,282.780303 3.34848485,305.393939 3.34848485,330.621212 C3.34848485,356.439394 18.8636364,379.742424 41.8863636,390.371212 C57.0984848,511.742424 124.340909,615.916667 245.454545,706.598485 C246.80303,707.613636 248.401515,708.106061 250,708.106061 C251.689394,708.106061 253.371212,707.174242 254.757576,706.05303 C335.393939,641.037879 435.787879,541.757576 457.151515,390.840909 C480.712121,380.431818 496.674242,356.810606 496.674242,330.628788 C496.674242,305.401515 482.507576,282.795455 460.204545,271.674242 Z M39.8484848,370.181818 C27.6212121,361 19.8484848,346.439394 19.8484848,330.636364 C19.8484848,314.333333 27.8257576,299.590909 40.719697,290.462121 C38.1742424,317.818182 37.8636364,344.386364 39.8484848,370.181818 Z M250.424242,16.8712121 C321.075758,16.8712121 395.613636,55.5378788 408.007576,141.568182 C362.75,133.454545 302.113636,128.310606 250,128.310606 C197.765152,128.310606 137.007576,133.462121 91.75,141.606061 C102.166667,55.9848485 180.045455,16.8712121 250.424242,16.8712121 Z M443.30303,280.431818 C437.25,350.840909 412.348485,470.068182 313.030303,472.5 C312.795455,472.5 289.795455,471.75 288.659091,455.212121 C288.469697,452.462121 286.780303,450 284.265152,448.840909 C281.75,447.681818 278.80303,447.977273 276.583333,449.628788 C276.515152,449.674242 269.840909,454.454545 262.05303,454.454545 C259.037879,454.454545 256.325758,453.742424 253.757576,452.272727 C251.795455,451.159091 249.416667,450.962121 247.295455,451.772727 C242.628788,453.55303 238.378788,454.454545 234.666667,454.454545 C227.833333,454.454545 225.083333,451.333333 225.060606,451.333333 C223.204545,448.712121 219.901515,447.560606 216.833333,448.416667 C213.75,449.287879 211.545455,452.007576 211.325758,455.204545 C210.189394,471.795455 187.181818,472.643939 186.621212,472.484848 C87.6287879,470.060606 62.7272727,351.575758 56.7045455,281.166667 C56.6136364,280.090909 56.2575758,279.113636 55.7651515,278.212121 C55.780303,278.090909 55.8333333,277.977273 55.8484848,277.856061 C58.2348485,248.106061 61.5681818,224.984848 71.5378788,194.704545 C75.6893939,181.5 81.3257576,169.174242 88.1136364,157.712121 C133.045455,149.037879 196.060606,143.462121 249.984848,143.462121 C305.219697,143.462121 370.068182,149.606061 415.19697,158.643939 C415.704545,158.75 416.19697,159.090909 416.69697,159.090909 L416.848485,159.090909 C421.022727,159.090909 424.378788,155.439394 424.409091,151.287879 C424.409091,151.356061 424.424242,151.295455 424.424242,151.363636 C424.424242,155.545455 421.045455,159.090909 416.848485,159.090909 L416.69697,159.090909 C416.212121,159.090909 415.704545,158.75 415.219697,158.643939 C413.901515,158.378788 412.530303,157.984848 411.181818,157.727273 C417.810606,168.80303 423.681818,180.871212 428.371212,194.44697 C439.181818,224.530303 441.651515,246.893939 444.128788,277.5 C443.666667,278.439394 443.371212,279.416667 443.30303,280.431818 Z M459.439394,370.765152 C461.772727,345.424242 461.818182,318.674242 459.287879,290.462121 C472.166667,299.590909 480.136364,314.325758 480.136364,330.628788 C480.151515,346.757576 472.106061,361.636364 459.439394,370.765152 Z" id="Shape"></path>
            <path d="M251.863636,428.560606 C231,428.560606 209.742424,426.606061 200.318182,422.757576 C196.439394,421.174242 194.583333,416.75 196.166667,412.878788 C197.75,409 202.181818,407.136364 206.045455,408.727273 C220.628788,414.681818 279.765152,415.015152 293.954545,409.227273 C297.825758,407.643939 302.25,409.492424 303.833333,413.371212 C305.416667,417.25 303.568182,421.674242 299.689394,423.257576 C290.984848,426.825758 271.606061,428.560606 251.863636,428.560606 Z" id="Shape"></path>
        </g>
    </g>
</svg>