
<svg width="42px" height="72px" viewBox="0 0 42 72" version="1.1" xmlns="http://www.w3.org/2000/svg" xmlns:xlink="http://www.w3.org/1999/xlink">
    <!-- Generator: Sketch 46.2 (44496) - http://www.bohemiancoding.com/sketch -->
    <desc>Created with Sketch.</desc>
    <defs></defs>
    <g id="List-of-icon" stroke="none" stroke-width="1" fill="none" fill-rule="evenodd">
        <g id="PAY-BUSINESS" transform="translate(-918.000000, -23.000000)" fill-rule="nonzero" fill="#000000">
            <g id="PAY-BUSINESS-4-Copy-2" transform="translate(884.000000, 2.000000)">
                <g id="point-of-service" transform="translate(34.000000, 21.000000)">
                    <path d="M31.8503245,15.8376159 L6.6487947,15.8376159 C5.46319868,15.8376159 4.49845033,16.8022252 4.49845033,17.9879603 L4.49845033,31.7022119 C4.49845033,32.887947 5.4630596,33.8525563 6.6487947,33.8525563 L31.8503245,33.8525563 C33.0360596,33.8526954 34.0006689,32.8880861 34.0006689,31.7022119 L34.0006689,17.9879603 C34.0006689,16.8023642 33.0360596,15.8376159 31.8503245,15.8376159 Z M31.9544901,31.7022119 C31.9544901,31.759649 31.9077616,31.8063775 31.8503245,31.8063775 L6.6487947,31.8063775 C6.59135762,31.8065166 6.54476821,31.759649 6.54476821,31.7022119 L6.54476821,17.9879603 C6.54476821,17.9305232 6.59135762,17.8839338 6.6487947,17.8839338 L31.8503245,17.8839338 C31.9077616,17.8839338 31.9544901,17.9305232 31.9544901,17.9879603 L31.9544901,31.7022119 L31.9544901,31.7022119 Z" id="Shape"></path>
                    <path d="M12.2360464,46.9176159 L8.65241722,46.9176159 C7.57738411,46.9176159 6.70261589,47.7923841 6.70261589,48.8674172 L6.70261589,52.4510464 C6.70261589,53.5260795 7.57738411,54.4008477 8.65241722,54.4008477 L12.2360464,54.4008477 C13.3110795,54.4008477 14.1858477,53.5260795 14.1858477,52.4510464 L14.1858477,48.8674172 C14.1858477,47.7923841 13.3110795,46.9176159 12.2360464,46.9176159 Z M12.1396689,52.3546689 L8.74893377,52.3546689 L8.74893377,48.9639338 L12.1396689,48.9639338 L12.1396689,52.3546689 Z" id="Shape"></path>
                    <path d="M21.0413046,46.9176159 L17.4576755,46.9176159 C16.3826424,46.9176159 15.5078742,47.7923841 15.5078742,48.8674172 L15.5078742,52.4510464 C15.5078742,53.5260795 16.3826424,54.4008477 17.4576755,54.4008477 L21.0413046,54.4008477 C22.1163377,54.4008477 22.991106,53.5260795 22.991106,52.4510464 L22.991106,48.8674172 C22.991106,47.7923841 22.1163377,46.9176159 21.0413046,46.9176159 Z M20.9447881,52.3546689 L17.554053,52.3546689 L17.554053,48.9639338 L20.9447881,48.9639338 L20.9447881,52.3546689 Z" id="Shape"></path>
                    <path d="M29.8465629,46.9176159 L26.2629338,46.9176159 C25.1879007,46.9176159 24.3131325,47.7923841 24.3131325,48.8674172 L24.3131325,52.4510464 C24.3131325,53.5260795 25.1879007,54.4008477 26.2629338,54.4008477 L29.8465629,54.4008477 C30.921596,54.4008477 31.7963642,53.5260795 31.7963642,52.4510464 L31.7963642,48.8674172 C31.7963642,47.7923841 30.921596,46.9176159 29.8465629,46.9176159 Z M29.7500464,52.3546689 L26.3593113,52.3546689 L26.3593113,48.9639338 L29.7500464,48.9639338 L29.7500464,52.3546689 L29.7500464,52.3546689 Z" id="Shape"></path>
                    <path d="M12.2360464,37.0987947 L8.65241722,37.0987947 C7.57738411,37.0987947 6.70261589,37.9735629 6.70261589,39.0487351 L6.70261589,42.6323642 C6.70261589,43.7073974 7.57738411,44.5821656 8.65241722,44.5821656 L12.2360464,44.5821656 C13.3110795,44.5821656 14.1858477,43.7073974 14.1858477,42.6323642 L14.1858477,39.0487351 C14.1858477,37.9735629 13.3110795,37.0987947 12.2360464,37.0987947 Z M12.1396689,42.5358477 L8.74893377,42.5358477 L8.74893377,39.1449735 L12.1396689,39.1449735 L12.1396689,42.5358477 Z" id="Shape"></path>
                    <path d="M21.0413046,37.0987947 L17.4576755,37.0987947 C16.3826424,37.0987947 15.5078742,37.9735629 15.5078742,39.0487351 L15.5078742,42.6323642 C15.5078742,43.7073974 16.3826424,44.5821656 17.4576755,44.5821656 L21.0413046,44.5821656 C22.1163377,44.5821656 22.991106,43.7073974 22.991106,42.6323642 L22.991106,39.0487351 C22.991106,37.9735629 22.1163377,37.0987947 21.0413046,37.0987947 Z M20.9447881,42.5358477 L17.554053,42.5358477 L17.554053,39.1449735 L20.9447881,39.1449735 L20.9447881,42.5358477 Z" id="Shape"></path>
                    <path d="M29.8465629,37.0987947 L26.2629338,37.0987947 C25.1879007,37.0987947 24.3131325,37.9735629 24.3131325,39.0487351 L24.3131325,42.6323642 C24.3131325,43.7073974 25.1879007,44.5821656 26.2629338,44.5821656 L29.8465629,44.5821656 C30.921596,44.5821656 31.7963642,43.7073974 31.7963642,42.6323642 L31.7963642,39.0487351 C31.7963642,37.9735629 30.921596,37.0987947 29.8465629,37.0987947 Z M29.7500464,42.5358477 L26.3593113,42.5358477 L26.3593113,39.1449735 L29.7500464,39.1449735 L29.7500464,42.5358477 L29.7500464,42.5358477 Z" id="Shape"></path>
                    <path d="M12.2360464,56.3482848 L8.65241722,56.3482848 C7.57738411,56.3482848 6.70261589,57.223053 6.70261589,58.2980861 L6.70261589,61.8817152 C6.70261589,62.9567483 7.57738411,63.8315166 8.65241722,63.8315166 L12.2360464,63.8315166 C13.3110795,63.8315166 14.1858477,62.9567483 14.1858477,61.8817152 L14.1858477,58.2980861 C14.1858477,57.2229139 13.3112185,56.3482848 12.2360464,56.3482848 Z M12.1396689,61.7851987 L8.74893377,61.7851987 L8.74893377,58.3944636 L12.1396689,58.3944636 L12.1396689,61.7851987 Z" id="Shape"></path>
                    <path d="M21.0413046,56.3482848 L17.4576755,56.3482848 C16.3826424,56.3482848 15.5078742,57.223053 15.5078742,58.2980861 L15.5078742,61.8817152 C15.5078742,62.9567483 16.3826424,63.8315166 17.4576755,63.8315166 L21.0413046,63.8315166 C22.1163377,63.8315166 22.991106,62.9567483 22.991106,61.8817152 L22.991106,58.2980861 C22.991106,57.2229139 22.1163377,56.3482848 21.0413046,56.3482848 Z M20.9447881,61.7851987 L17.554053,61.7851987 L17.554053,58.3944636 L20.9447881,58.3944636 L20.9447881,61.7851987 Z" id="Shape"></path>
                    <path d="M29.8465629,56.3482848 L26.2629338,56.3482848 C25.1879007,56.3482848 24.3131325,57.223053 24.3131325,58.2980861 L24.3131325,61.8817152 C24.3131325,62.9567483 25.1879007,63.8315166 26.2629338,63.8315166 L29.8465629,63.8315166 C30.921596,63.8315166 31.7963642,62.9567483 31.7963642,61.8817152 L31.7963642,58.2980861 C31.7963642,57.2229139 30.921596,56.3482848 29.8465629,56.3482848 Z M29.7500464,61.7851987 L26.3593113,61.7851987 L26.3593113,58.3944636 L29.7500464,58.3944636 L29.7500464,61.7851987 L29.7500464,61.7851987 Z" id="Shape"></path>
                    <path d="M39.7671854,13.7523576 L38.2781325,13.7523576 C37.8940132,12.6009735 36.8808675,11.7356623 35.6478477,11.5657152 L35.6478477,8.89523841 C35.6478477,7.27086755 34.3265166,5.94953642 32.7022848,5.94953642 L31.3061325,5.94953642 L31.3061325,2.27676159 C31.3061325,1.02135099 30.2847815,0 29.0293709,0 L9.46960927,0 C8.21433775,0 7.19284768,1.02135099 7.19284768,2.27676159 L7.19284768,5.94953642 L5.79669536,5.94953642 C4.1723245,5.94953642 2.85099338,7.27086755 2.85099338,8.89523841 L2.85099338,11.5657152 C1.27349007,11.7830861 0.0543774834,13.1390464 0.0543774834,14.7755166 L0.0543774834,40.7889536 C0.0543774834,43.3836358 0.363258278,45.9783179 0.972675497,48.5010993 C1.54384768,50.8663113 1.83353642,53.2993907 1.83353642,55.7328874 L1.83353642,56.8458874 C1.83353642,57.4109404 2.29150331,57.8690464 2.85669536,57.8690464 C3.42188742,57.8690464 3.8798543,57.4110795 3.8798543,56.8458874 L3.8798543,55.7328874 C3.8798543,53.137649 3.57097351,50.5429669 2.96169536,48.0207417 C2.39052318,45.6552517 2.10069536,43.221894 2.10069536,40.7889536 L2.10069536,14.7755166 C2.10069536,14.1167285 2.63668212,13.5808808 3.29533113,13.5808808 L35.203649,13.5808808 C35.8624371,13.5808808 36.3982848,14.1168675 36.3982848,14.7755166 L36.3982848,40.7888146 L36.3982848,40.7889536 C36.3982848,41.0470728 36.3932781,41.3051921 36.3867417,41.5631722 C36.3867417,41.5644238 36.3867417,41.5653974 36.3867417,41.566649 C36.3867417,41.5669272 36.3867417,41.5672053 36.3867417,41.5673444 C36.3316689,43.7406358 36.0476821,45.9076689 35.5372848,48.0206026 C34.9281457,50.5428278 34.6191258,53.1375099 34.6191258,55.7327483 L34.6191258,67.8215166 C34.6191258,68.5590199 34.0193046,69.1588411 33.2818013,69.1588411 L31.7963642,69.1588411 L31.7963642,68.6033841 C31.7963642,66.9221325 30.4285828,65.554351 28.7473311,65.554351 L9.75164901,65.554351 C8.07039735,65.554351 6.70261589,66.9222715 6.70261589,68.6033841 L6.70261589,69.1588411 L5.21717881,69.1588411 C4.4796755,69.1588411 3.87971523,68.5590199 3.87971523,67.8215166 L3.87971523,63.2948344 C3.87971523,62.7297815 3.42174834,62.2716755 2.85655629,62.2716755 C2.29136424,62.2716755 1.83339735,62.7296424 1.83339735,63.2948344 L1.83339735,67.8217947 C1.83339735,69.687457 3.35123841,71.2054371 5.21717881,71.2054371 L33.2816623,71.2054371 C35.1473245,71.2054371 36.6653046,69.687596 36.6653046,67.8217947 L36.6653046,55.7330265 C36.6653046,53.2995298 36.9548543,50.8664503 37.5261656,48.5012384 C37.9924768,46.5713245 38.2813311,44.5985762 38.391894,42.6159536 L39.7670464,42.6159536 C40.9683576,42.6159536 41.9457616,41.6386887 41.9457616,40.4373775 L41.9457616,15.9310728 C41.9457616,14.7297616 40.9684967,13.7523576 39.7671854,13.7523576 Z M7.19298675,11.5345629 L4.89731126,11.5345629 L4.89731126,8.89523841 C4.89731126,8.39930464 5.30076159,7.99571523 5.79683444,7.99571523 L7.19298675,7.99571523 L7.19298675,11.5345629 L7.19298675,11.5345629 Z M9.23916556,11.5345629 L9.23916556,2.27676159 C9.23916556,2.14964901 9.34249669,2.04631788 9.46960927,2.04631788 L29.0292318,2.04631788 C29.1563444,2.04631788 29.2598146,2.14964901 29.2598146,2.27676159 L29.2598146,11.5345629 L9.23916556,11.5345629 Z M33.6016689,11.5345629 L31.3061325,11.5345629 L31.3061325,7.99571523 L32.7022848,7.99571523 C33.1982185,7.99571523 33.6016689,8.39916556 33.6016689,8.89523841 L33.6016689,11.5345629 L33.6016689,11.5345629 Z M29.7500464,69.1591192 L8.74893377,69.1591192 L8.74893377,68.6036623 C8.74893377,68.0507086 9.19883444,67.6008079 9.75164901,67.6008079 L28.7473311,67.6008079 C29.3001457,67.6008079 29.7500464,68.0507086 29.7500464,68.6036623 L29.7500464,69.1591192 Z M39.8995828,40.4372384 C39.8995828,40.5102517 39.8401987,40.5694967 39.7671854,40.5694967 L38.4446026,40.5694967 L38.4446026,15.7986755 L39.7671854,15.7986755 C39.8401987,15.7986755 39.8995828,15.8580596 39.8995828,15.9310728 L39.8995828,40.4372384 Z" id="Shape"></path>
                    <path d="M26.0020331,8.02394702 L24.058351,8.02394702 C23.493298,8.02394702 23.0351921,8.48191391 23.0351921,9.04710596 C23.0351921,9.61229801 23.4931589,10.0702649 24.058351,10.0702649 L26.0021722,10.0702649 C26.5672252,10.0702649 27.0253311,9.61229801 27.0253311,9.04710596 C27.0253311,8.48191391 26.5672252,8.02394702 26.0020331,8.02394702 Z" id="Shape"></path>
                    <path d="M17.6269272,8.02394702 L12.3605166,8.02394702 C11.7954636,8.02394702 11.3373576,8.48191391 11.3373576,9.04710596 C11.3373576,9.61229801 11.7953245,10.0702649 12.3605166,10.0702649 L17.6269272,10.0702649 C18.1919801,10.0702649 18.6500861,9.61229801 18.6500861,9.04710596 C18.6500861,8.48191391 18.1919801,8.02394702 17.6269272,8.02394702 Z" id="Shape"></path>
                    <path d="M26.0020331,3.60991391 L12.3605166,3.60991391 C11.7954636,3.60991391 11.3373576,4.06788079 11.3373576,4.63307285 C11.3373576,5.1982649 11.7953245,5.65623179 12.3605166,5.65623179 L26.0020331,5.65623179 C26.5670861,5.65623179 27.0251921,5.1982649 27.0251921,4.63307285 C27.0251921,4.06788079 26.5672252,3.60991391 26.0020331,3.60991391 Z" id="Shape"></path>
                </g>
            </g>
        </g>
    </g>
</svg>