
<svg width="37px" height="37px" viewBox="0 0 37 37" version="1.1" xmlns="http://www.w3.org/2000/svg" xmlns:xlink="http://www.w3.org/1999/xlink">
    <!-- Generator: Sketch 46.2 (44496) - http://www.bohemiancoding.com/sketch -->
    <desc>Created with Sketch.</desc>
    <defs></defs>
    <g id="Dinarpal" stroke="none" stroke-width="1" fill="none" fill-rule="evenodd">
        <g id="GOLD-History" transform="translate(-30.000000, -458.000000)" fill-rule="nonzero" fill="#64686D">
            <g id="Transaction-2-Copy-3" transform="translate(0.000000, 430.000000)">
                <g id="transfer-money" transform="translate(30.000000, 28.000000)">
                    <path d="M28.9230769,10.4616154 C27.5655385,10.4616154 26.4615385,9.35761538 26.4615385,8.00007692 C26.4615385,7.65976923 26.1864615,7.38469231 25.8461538,7.38469231 L6.15384615,7.38469231 C5.81353846,7.38469231 5.53846154,7.65976923 5.53846154,8.00007692 C5.53846154,9.35761538 4.43446154,10.4616154 3.07692308,10.4616154 C2.73661538,10.4616154 2.46153846,10.7366923 2.46153846,11.077 L2.46153846,16.0000769 C2.46153846,16.3403846 2.73661538,16.6154615 3.07692308,16.6154615 C4.43446154,16.6154615 5.53846154,17.7194615 5.53846154,19.077 C5.53846154,19.4173077 5.81353846,19.6923846 6.15384615,19.6923846 L25.8461538,19.6923846 C26.1864615,19.6923846 26.4615385,19.4173077 26.4615385,19.077 C26.4615385,17.7194615 27.5655385,16.6154615 28.9230769,16.6154615 C29.2633846,16.6154615 29.5384615,16.3403846 29.5384615,16.0000769 L29.5384615,11.077 C29.5384615,10.7366923 29.2633846,10.4616154 28.9230769,10.4616154 Z M28.3076923,15.4357692 C26.7636923,15.6960769 25.5421538,16.9176154 25.2818462,18.4616154 L6.71815385,18.4616154 C6.45784615,16.9176154 5.23630769,15.6960769 3.69230769,15.4357692 L3.69230769,11.6413077 C5.23630769,11.381 6.45784615,10.1594615 6.71815385,8.61546154 L25.2818462,8.61546154 C25.5421538,10.1594615 26.7636923,11.381 28.3076923,11.6413077 L28.3076923,15.4357692 Z" id="Shape"></path>
                    <path d="M16,10.4616154 C14.3033846,10.4616154 12.9230769,11.8419231 12.9230769,13.5385385 C12.9230769,15.2351538 14.3033846,16.6154615 16,16.6154615 C17.6966154,16.6154615 19.0769231,15.2351538 19.0769231,13.5385385 C19.0769231,11.8419231 17.6966154,10.4616154 16,10.4616154 Z M16,15.3846923 C14.9821538,15.3846923 14.1538462,14.5563846 14.1538462,13.5385385 C14.1538462,12.5206923 14.9821538,11.6923846 16,11.6923846 C17.0178462,11.6923846 17.8461538,12.5206923 17.8461538,13.5385385 C17.8461538,14.5563846 17.0178462,15.3846923 16,15.3846923 Z" id="Shape"></path>
                    <path d="M36.3076923,7.69230769e-05 L5.53846154,7.69230769e-05 C5.19815385,7.69230769e-05 4.92307692,0.275153846 4.92307692,0.615461538 L4.92307692,2.46161538 L3.07692308,2.46161538 C2.73661538,2.46161538 2.46153846,2.73669231 2.46153846,3.077 L2.46153846,4.92315385 L0.615384615,4.92315385 C0.275076923,4.92315385 0,5.19823077 0,5.53853846 L0,21.5385385 C0,21.8788462 0.275076923,22.1539231 0.615384615,22.1539231 L31.3846154,22.1539231 C31.7249231,22.1539231 32,21.8788462 32,21.5385385 L32,19.6923846 L33.8461538,19.6923846 C34.1864615,19.6923846 34.4615385,19.4173077 34.4615385,19.077 L34.4615385,17.2308462 L36.3076923,17.2308462 C36.648,17.2308462 36.9230769,16.9557692 36.9230769,16.6154615 L36.9230769,0.615461538 C36.9230769,0.275153846 36.648,7.69230769e-05 36.3076923,7.69230769e-05 Z M30.7692308,19.077 L30.7692308,20.9231538 L1.23076923,20.9231538 L1.23076923,6.15392308 L3.07692308,6.15392308 L30.7692308,6.15392308 L30.7692308,19.077 Z M33.2307692,18.4616154 L32,18.4616154 L32,5.53853846 C32,5.19823077 31.7249231,4.92315385 31.3846154,4.92315385 L3.69230769,4.92315385 L3.69230769,3.69238462 L33.2307692,3.69238462 L33.2307692,18.4616154 Z M35.6923077,16.0000769 L34.4615385,16.0000769 L34.4615385,3.077 C34.4615385,2.73669231 34.1864615,2.46161538 33.8461538,2.46161538 L6.15384615,2.46161538 L6.15384615,1.23084615 L35.6923077,1.23084615 L35.6923077,16.0000769 Z" id="Shape"></path>
                    <path d="M36.6769231,29.6622308 L29.2923077,24.1231538 C29.1064615,23.9822308 28.856,23.9606923 28.648,24.0646923 C28.4393846,24.1693077 28.3076923,24.3822308 28.3076923,24.6154615 L28.3076923,27.077 L18.4615385,27.077 C18.1212308,27.077 17.8461538,27.3520769 17.8461538,27.6923846 L17.8461538,32.6154615 C17.8461538,32.9557692 18.1212308,33.2308462 18.4615385,33.2308462 L28.3076923,33.2308462 L28.3076923,36.3077692 C28.3076923,36.5465385 28.4461538,36.7637692 28.6621538,36.8646923 C28.7452308,36.9040769 28.8338462,36.9231538 28.9230769,36.9231538 C29.064,36.9231538 29.2043077,36.8745385 29.3175385,36.781 L36.7021538,30.6271538 C36.8461538,30.5065385 36.928,30.3268462 36.9230769,30.1385385 C36.9181538,29.9502308 36.8276923,29.7748462 36.6769231,29.6622308 Z M29.5384615,34.9939231 L29.5384615,32.6154615 C29.5384615,32.2751538 29.2633846,32.0000769 28.9230769,32.0000769 L19.0769231,32.0000769 L19.0769231,28.3077692 L28.9230769,28.3077692 C29.2633846,28.3077692 29.5384615,28.0326923 29.5384615,27.6923846 L29.5384615,25.8462308 L35.3163077,30.1791538 L29.5384615,34.9939231 Z" id="Shape"></path>
                    <path d="M16,27.077 L13.5384615,27.077 C13.1981538,27.077 12.9230769,27.3520769 12.9230769,27.6923846 L12.9230769,32.6154615 C12.9230769,32.9557692 13.1981538,33.2308462 13.5384615,33.2308462 L16,33.2308462 C16.3403077,33.2308462 16.6153846,32.9557692 16.6153846,32.6154615 L16.6153846,27.6923846 C16.6153846,27.3520769 16.3403077,27.077 16,27.077 Z M15.3846154,32.0000769 L14.1538462,32.0000769 L14.1538462,28.3077692 L15.3846154,28.3077692 L15.3846154,32.0000769 Z" id="Shape"></path>
                    <path d="M9.84615385,27.077 L7.38461538,27.077 C7.04430769,27.077 6.76923077,27.3520769 6.76923077,27.6923846 L6.76923077,32.6154615 C6.76923077,32.9557692 7.04430769,33.2308462 7.38461538,33.2308462 L9.84615385,33.2308462 C10.1864615,33.2308462 10.4615385,32.9557692 10.4615385,32.6154615 L10.4615385,27.6923846 C10.4615385,27.3520769 10.1864615,27.077 9.84615385,27.077 Z M9.23076923,32.0000769 L8,32.0000769 L8,28.3077692 L9.23076923,28.3077692 L9.23076923,32.0000769 Z" id="Shape"></path>
                    <path d="M3.07692308,27.077 L0.615384615,27.077 C0.275076923,27.077 0,27.3520769 0,27.6923846 L0,32.6154615 C0,32.9557692 0.275076923,33.2308462 0.615384615,33.2308462 L3.07692308,33.2308462 C3.41723077,33.2308462 3.69230769,32.9557692 3.69230769,32.6154615 L3.69230769,27.6923846 C3.69230769,27.3520769 3.41723077,27.077 3.07692308,27.077 Z M2.46153846,32.0000769 L1.23076923,32.0000769 L1.23076923,28.3077692 L2.46153846,28.3077692 L2.46153846,32.0000769 Z" id="Shape"></path>
                </g>
            </g>
        </g>
    </g>
</svg>