
<svg width="38px" height="52px" viewBox="0 0 38 52" version="1.1" xmlns="http://www.w3.org/2000/svg" xmlns:xlink="http://www.w3.org/1999/xlink">
    <!-- Generator: Sketch 46.2 (44496) - http://www.bohemiancoding.com/sketch -->
    <desc>Created with Sketch.</desc>
    <defs></defs>
    <g id="Dinarpal" stroke="none" stroke-width="1" fill="none" fill-rule="evenodd">
        <g id="GOLD-History" transform="translate(-29.000000, -360.000000)" fill-rule="nonzero" fill="#64686D">
            <g id="Group-2" transform="translate(29.000000, 360.000000)">
                <g id="atm-machine">
                    <path d="M37.459168,11.0096094 C37.1604375,11.0096094 36.9183359,11.2517109 36.9183359,11.5504414 L36.9183359,33.3122695 C36.9183359,33.5994961 36.6846211,33.8332109 36.3973945,33.8332109 L21.4276953,33.8332109 C21.1289648,33.8332109 20.8868633,34.0753125 20.8868633,34.374043 C20.8868633,34.6726992 21.1289648,34.914875 21.4276953,34.914875 L36.3974688,34.914875 C37.2811172,34.914875 38,34.1959922 38,33.3123437 L38,11.5503672 C38,11.2517109 37.7578984,11.0096094 37.459168,11.0096094 Z" id="Shape"></path>
                    <path d="M36.3974688,0.026125 L1.60253125,0.026125 C0.718882813,0.026125 0,0.745007813 0,1.62865625 L0,33.3121953 C0,34.1958437 0.718882813,34.9147266 1.60253125,34.9147266 L2.72197266,34.9147266 C3.02070313,34.9147266 3.26280469,34.672625 3.26280469,34.3738945 C3.26280469,34.0752383 3.02070313,33.8330625 2.72197266,33.8330625 L1.60253125,33.8330625 C1.31530469,33.8330625 1.08158984,33.5993477 1.08158984,33.3121211 L1.08158984,1.62865625 C1.08158984,1.34142969 1.31530469,1.10771484 1.60253125,1.10771484 L36.3974688,1.10771484 C36.6846953,1.10771484 36.9184102,1.34142969 36.9184102,1.62865625 L36.9184102,8.10505859 C36.9184102,8.40371484 37.1605117,8.64589062 37.4592422,8.64589062 C37.7579727,8.64589062 38,8.40378906 38,8.10513281 L38,1.62865625 C38,0.745007813 37.2811172,0.026125 36.3974688,0.026125 Z" id="Shape"></path>
                    <path d="M27.9063984,21.3177031 L25.1271289,21.3177031 C24.547332,21.3177031 24.0755977,21.7894375 24.0755977,22.3692344 L24.0755977,25.1485039 C24.0755977,25.7283008 24.547332,26.1999609 25.1271289,26.1999609 L27.9063984,26.1999609 C28.4861953,26.1999609 28.9579297,25.7283008 28.9579297,25.1485039 L28.9579297,22.3692344 C28.9579297,21.7894375 28.4861953,21.3177031 27.9063984,21.3177031 Z M27.8763398,25.1184453 L25.1571875,25.1184453 L25.1571875,22.3993672 L27.8763398,22.3993672 L27.8763398,25.1184453 Z" id="Shape"></path>
                    <path d="M33.9368203,21.3177031 L31.1575508,21.3177031 C30.5777539,21.3177031 30.1060195,21.7894375 30.1060195,22.3692344 L30.1060195,25.1485039 C30.1060195,25.7283008 30.5777539,26.1999609 31.1575508,26.1999609 L33.9368203,26.1999609 C34.5166172,26.1999609 34.9883516,25.7283008 34.9883516,25.1485039 L34.9883516,22.3692344 C34.9883516,21.7894375 34.5166172,21.3177031 33.9368203,21.3177031 Z M33.9067617,25.1184453 L31.1876094,25.1184453 L31.1876094,22.3993672 L33.9067617,22.3993672 L33.9067617,25.1184453 Z" id="Shape"></path>
                    <path d="M27.9063984,27.220543 L25.1271289,27.220543 C24.547332,27.220543 24.0755977,27.6922773 24.0755977,28.2720742 L24.0755977,31.0513437 C24.0755977,31.6311406 24.547332,32.102875 25.1271289,32.102875 L27.9063984,32.102875 C28.4861953,32.102875 28.9579297,31.6311406 28.9579297,31.0513437 L28.9579297,28.2720742 C28.9579297,27.6922031 28.4861953,27.220543 27.9063984,27.220543 Z M27.8763398,31.0212109 L25.1571875,31.0212109 L25.1571875,28.3020586 L27.8763398,28.3020586 L27.8763398,31.0212109 Z" id="Shape"></path>
                    <path d="M33.9368203,27.220543 L31.1575508,27.220543 C30.5777539,27.220543 30.1060195,27.6922773 30.1060195,28.2720742 L30.1060195,31.0513437 C30.1060195,31.6311406 30.5777539,32.102875 31.1575508,32.102875 L33.9368203,32.102875 C34.5166172,32.102875 34.9883516,31.6311406 34.9883516,31.0513437 L34.9883516,28.2720742 C34.9883516,27.6922031 34.5166172,27.220543 33.9368203,27.220543 Z M33.9067617,31.0212109 L31.1876094,31.0212109 L31.1876094,28.3020586 L33.9067617,28.3020586 L33.9067617,31.0212109 Z" id="Shape"></path>
                    <path d="M34.9883516,4.64149219 C34.9883516,3.78292969 34.2898047,3.08438281 33.4312422,3.08438281 L4.56875781,3.08438281 C3.71019531,3.08438281 3.01164844,3.78292969 3.01164844,4.64149219 L3.01164844,16.8291016 C3.01164844,17.6876641 3.71019531,18.3862109 4.56875781,18.3862109 L33.4312422,18.3862109 C34.2898047,18.3862109 34.9883516,17.6877383 34.9883516,16.8291016 L34.9883516,4.64149219 L34.9883516,4.64149219 Z M33.9067617,16.8291016 L33.9067617,16.8291016 C33.9067617,17.0913164 33.693457,17.3046211 33.4312422,17.3046211 L4.56875781,17.3046211 C4.30654297,17.3046211 4.09323828,17.0913164 4.09323828,16.8291016 L4.09323828,4.64149219 C4.09323828,4.37927734 4.30654297,4.16597266 4.56875781,4.16597266 L33.4312422,4.16597266 C33.693457,4.16597266 33.9067617,4.37927734 33.9067617,4.64149219 L33.9067617,16.8291016 Z" id="Shape"></path>
                    <path d="M21.3176289,22.8086836 C21.3176289,21.9865625 20.6488437,21.3177031 19.8267227,21.3177031 L4.50262891,21.3177031 C3.68050781,21.3177031 3.01164844,21.9865625 3.01164844,22.8086836 C3.01164844,23.6308047 3.68050781,24.2996641 4.50262891,24.2996641 L5.2855625,24.2996641 L4.31797266,33.3409922 L4.06228906,35.7297227 C4.05375391,35.8099531 4.05367969,35.889293 4.06058203,35.9672969 C4.06102734,35.9725664 4.06080469,35.9779102 4.06132422,35.9831055 C4.06228906,35.9923086 4.06436719,36.0012148 4.06555469,36.0103438 C4.09524219,36.2490313 4.19551172,36.4722813 4.36116797,36.6565664 L4.36124219,36.6566406 C4.36161328,36.6570859 4.36213281,36.657457 4.36250391,36.6579023 C4.57269141,36.8910977 4.87045703,37.0379023 5.19627734,37.0739727 C5.24815625,37.0796875 5.30055469,37.08325 5.35362109,37.08325 L18.9758789,37.08325 C19.3628555,37.08325 19.7245977,36.9277617 19.9682578,36.6565664 C20.1975937,36.4014023 20.3037266,36.072168 20.2670625,35.7295 L19.0437891,24.2995898 L19.8267969,24.2995898 C20.6487695,24.2996641 21.3176289,23.6308047 21.3176289,22.8086836 Z M4.50262891,23.2180742 C4.27685547,23.2180742 4.09323828,23.034457 4.09323828,22.8086836 C4.09323828,22.5829844 4.27685547,22.399293 4.50262891,22.399293 L5.48892188,22.399293 L5.40126953,23.2180742 L4.50262891,23.2180742 L4.50262891,23.2180742 Z M7.64111719,36.0016602 L5.35354688,36.0016602 C5.27294531,36.0016602 5.20444141,35.9768711 5.165625,35.9336016 C5.14283984,35.908293 5.13400781,35.8799414 5.13771875,35.8446875 L5.41744922,33.2318164 C6.68124609,33.4581836 7.64334375,34.5656016 7.64334375,35.8934492 C7.64326953,35.9295937 7.64252734,35.9656641 7.64111719,36.0016602 Z M8.72211328,36.0016602 C8.72315234,35.9655898 8.72485938,35.9295195 8.72485938,35.8935234 C8.72485938,34.0079961 7.33904688,32.4404219 5.53263672,32.1547539 L6.57667188,22.399293 L17.7526055,22.399293 L18.7966406,32.1547539 C16.9902305,32.4404219 15.6044922,34.0079961 15.6044922,35.8934492 C15.6044922,35.9295937 15.606125,35.9655898 15.6071641,36.0016602 L8.72211328,36.0016602 L8.72211328,36.0016602 Z M19.1915586,35.8446875 C19.1952695,35.8800156 19.1865117,35.908293 19.1637266,35.9336016 C19.1248359,35.9768711 19.056332,36.0016602 18.9758047,36.0016602 L16.6881602,36.0016602 C16.68675,35.9655898 16.686082,35.9295195 16.686082,35.8935234 C16.686082,34.56575 17.6482539,33.458332 18.9119023,33.2318906 L19.1915586,35.8446875 Z M18.9280078,23.2180742 L18.8403555,22.399293 L19.8267227,22.399293 C20.0524219,22.399293 20.2360391,22.5829102 20.2360391,22.8086836 C20.2360391,23.034457 20.0524219,23.2180742 19.8267227,23.2180742 L18.9280078,23.2180742 L18.9280078,23.2180742 Z" id="Shape"></path>
                    <path d="M17.2790898,27.4686562 C17.1164766,25.2505547 14.8699492,23.5130937 12.1646016,23.5130937 C9.45925391,23.5130937 7.21272656,25.2505547 7.05011328,27.4686562 C6.97559766,28.4844883 7.34535547,29.4859219 8.09125391,30.2884492 C9.06277734,31.3338203 10.5474492,31.9333594 12.1646016,31.9333594 C13.7817539,31.9333594 15.2664258,31.3338203 16.2379492,30.2884492 C16.9838477,29.4859219 17.3536055,28.4844883 17.2790898,27.4686562 Z M15.4457383,29.552125 C14.6780938,30.3780312 13.4822813,30.8516953 12.1646016,30.8516953 C10.8469219,30.8516953 9.65110938,30.3780312 8.88346484,29.552125 C8.33676953,28.9638672 8.07581641,28.2707383 8.12873438,27.5476992 C8.25023047,25.8917305 10.0229453,24.5946094 12.1646016,24.5946094 C14.3062578,24.5946094 16.0789727,25.8917305 16.2004687,27.5476992 C16.2533867,28.2707383 15.9924336,28.9638672 15.4457383,29.552125 Z" id="Shape"></path>
                    <path d="M13.8705938,13.7612332 L12.2280586,8.25789862 C12.1315,7.94214602 11.7362109,7.78876741 11.3321641,7.78876741 C10.9281172,7.78876741 10.5329023,7.94214602 10.4362695,8.25789862 L8.80249219,13.7612332 C8.79373438,13.7972909 8.78497656,13.8334248 8.78497656,13.8604871 C8.78497656,14.1942304 9.28558203,14.4378677 9.66342969,14.4378677 C9.88296875,14.4378677 10.0586445,14.365676 10.1113398,14.1762397 L10.4099219,13.048541 L12.2632383,13.048541 L12.5618203,14.1762397 C12.6145156,14.365676 12.7901914,14.4378677 13.0098047,14.4378677 C13.3875039,14.4378677 13.8881836,14.1943067 13.8881836,13.8604871 C13.8881836,13.8334248 13.8794258,13.7972909 13.8705938,13.7612332 Z M10.6909141,11.9658953 L11.3321641,9.54804758 L11.9734141,11.9658953 L10.6909141,11.9658953 L10.6909141,11.9658953 Z" id="Shape"></path>
                    <path d="M20.3000156,7.84289207 L16.5055078,7.84289207 C16.2156094,7.84289207 16.0927031,8.16764003 16.0927031,8.4654019 C16.0927031,8.80821683 16.2420313,9.10590246 16.5055078,9.10590246 L17.7177227,9.10590246 L17.7177227,14.0047941 C17.7177227,14.2934844 18.0603164,14.4378677 18.4028359,14.4378677 C18.7453555,14.4378677 19.087875,14.2934844 19.087875,14.0047941 L19.087875,9.10590246 L20.3000156,9.10590246 C20.5635664,9.10590246 20.7128945,8.80821683 20.7128945,8.4654019 C20.7128945,8.16764003 20.5899141,7.84289207 20.3000156,7.84289207 Z" id="Shape"></path>
                    <path d="M28.5299102,7.84289207 C28.0379883,7.84289207 27.8272813,7.89701673 27.4670977,8.54658889 L26.5624453,10.1705574 L25.6577188,8.54658889 C25.2976836,7.89701673 25.0868281,7.84289207 24.5949805,7.84289207 C24.2523867,7.84289207 23.9098672,8.03232838 23.9098672,8.54658889 L23.9098672,14.0047941 C23.9098672,14.2934844 24.2523867,14.4378677 24.5949805,14.4378677 C24.9375,14.4378677 25.2800195,14.2934844 25.2800195,14.0047941 L25.2800195,10.5314393 L26.1144609,12.1012069 C26.2198516,12.3087102 26.3867695,12.3628349 26.5448555,12.3628349 C26.7117734,12.3628349 26.8874492,12.2997149 27.0015977,12.1012069 L27.8447969,10.6216217 L27.8447969,14.0047941 C27.8447969,14.2934844 28.1873164,14.4378677 28.5299102,14.4378677 C28.8724297,14.4378677 29.2149492,14.2934844 29.2149492,14.0047941 L29.2149492,8.54658889 C29.2149492,8.03232838 28.8811875,7.84289207 28.5299102,7.84289207 Z" id="Shape"></path>
                </g>
                <g id="left-arrow" transform="translate(21.285714, 44.614286) rotate(-90.000000) translate(-21.285714, -44.614286) translate(13.785714, 39.614286)">
                    <path d="M4.96952004,0.510464732 C5.16084445,0.319140327 5.46205111,0.319140327 5.65337552,0.510464732 C5.83823626,0.695325474 5.83823626,1.0029958 5.65337552,1.18742563 L2.18583614,4.65496501 L13.6282421,4.65496501 C13.8949759,4.65496501 14.1138786,4.86697313 14.1138786,5.13370693 C14.1138786,5.40044073 13.8949759,5.61934342 13.6282421,5.61934342 L2.18583614,5.61934342 L5.65337552,9.08041913 C5.83823626,9.27174354 5.83823626,9.57984478 5.65337552,9.76427461 C5.46205111,9.95559901 5.16084445,9.95559901 4.96952004,9.76427461 L0.681095557,5.47585012 C0.496234814,5.29098938 0.496234814,4.98331905 0.681095557,4.79888922 L4.96952004,0.510464732 Z" id="Shape"></path>
                </g>
            </g>
        </g>
    </g>
</svg>